<svg width="101" height="101" fill="none" xmlns="http://www.w3.org/2000/svg"><path d="M15.492 85.48c-19.49-19.49-19.49-51.199 0-70.688 19.49-19.49 51.199-19.49 70.688 0 19.49 19.49 19.49 51.198 0 70.688-19.49 19.49-51.198 19.49-70.688 0zm68.333-68.333c-18.191-18.19-47.786-18.19-65.972 0-18.191 18.191-18.191 47.786 0 65.972 18.19 18.191 47.785 18.191 65.972 0 18.191-18.19 18.191-47.785 0-65.972z" fill="#fff"/><path d="M84.364 39.533a1.645 1.645 0 01-.398-.645c-1.73-5.118-4.555-9.654-8.394-13.494A34.663 34.663 0 0062.078 17a1.667 1.667 0 01-1.133-1.578V3.274a1.664 1.664 0 012.067-1.616A49.873 49.873 0 0186.17 14.792 49.929 49.929 0 0199.299 37.95c.123.498.01 1.024-.303 1.431a1.66 1.66 0 01-1.313.64H85.535c-.455 0-.872-.185-1.18-.493l.009.005zm-6.437-16.494a37.98 37.98 0 018.793 13.65h8.787A46.608 46.608 0 0083.82 17.147 46.562 46.562 0 0064.282 5.464v8.787a37.854 37.854 0 0113.65 8.793l-.005-.005zM15.49 85.48A49.913 49.913 0 012.358 62.32a1.673 1.673 0 01.303-1.426 1.66 1.66 0 011.313-.64h12.148c.716 0 1.351.455 1.579 1.133 1.73 5.119 4.554 9.655 8.394 13.494a34.663 34.663 0 0013.494 8.394 1.663 1.663 0 011.132 1.578v12.148c0 .512-.237.995-.64 1.313a1.67 1.67 0 01-1.43.303A49.928 49.928 0 0115.49 85.49v-.01zM6.159 63.582a46.608 46.608 0 0011.688 19.542 46.608 46.608 0 0019.542 11.688v-8.787a37.904 37.904 0 01-13.65-8.788 37.979 37.979 0 01-8.792-13.65H6.158v-.005zm55.282 34.591a1.664 1.664 0 01-.488-1.18V84.845c0-.716.455-1.351 1.133-1.579 5.119-1.73 9.654-4.555 13.494-8.394a34.643 34.643 0 008.394-13.494 1.663 1.663 0 011.578-1.132H97.7a1.661 1.661 0 011.616 2.066A49.979 49.979 0 0186.182 85.47a49.872 49.872 0 01-23.158 13.134 1.673 1.673 0 01-1.427-.303c-.052-.048-.104-.09-.151-.138l-.005.01zm2.844-12.153v8.788a46.608 46.608 0 0019.542-11.689 46.656 46.656 0 0011.688-19.541h-8.787c-1.92 5.147-4.873 9.73-8.793 13.65-3.915 3.915-8.503 6.873-13.65 8.792zM2.794 39.533a1.667 1.667 0 01-.436-1.583 49.873 49.873 0 0113.134-23.158A49.937 49.937 0 0138.65 1.658a1.673 1.673 0 011.427.303c.402.318.64.801.64 1.313v12.148c0 .716-.456 1.35-1.133 1.578-5.12 1.73-9.655 4.555-13.494 8.394a34.663 34.663 0 00-8.394 13.494 1.663 1.663 0 01-1.579 1.133H3.97c-.445 0-.872-.175-1.18-.483l.005-.005zm34.59-34.07a46.608 46.608 0 00-19.541 11.689A46.657 46.657 0 006.154 36.694h8.788c1.92-5.147 4.872-9.73 8.792-13.65a37.979 37.979 0 0113.65-8.793V5.464z" fill="#fff"/><path d="M77.932 23.039c-14.94-14.94-39.255-14.945-54.194 0-14.945 14.944-14.94 39.254 0 54.194 14.94 14.94 39.25 14.944 54.194 0 14.944-14.945 14.94-39.255 0-54.194z" fill="#fff"/><path d="M64.654 63.813l-27.527.183a2.1 2.1 0 00-2.086 2.113l.007.982a2.1 2.1 0 002.113 2.085l27.528-.182a2.1 2.1 0 002.086-2.114l-.007-.981a2.1 2.1 0 00-2.114-2.086zM40.877 47.197c-.298 0-.602-.066-.877-.199l-2.147-1.038a1.984 1.984 0 01-.971-2.521l.986-2.456a1.977 1.977 0 012.815-.98l2.56 1.46a1.986 1.986 0 01.65 2.844l-1.404 2.032a1.969 1.969 0 01-1.616.854l.004.004zm19.815-.132a1.986 1.986 0 01-1.626-.835l-1.388-1.957a1.982 1.982 0 01.611-2.854l2.64-1.55c.299-.175.64-.27.986-.274a1.983 1.983 0 011.844 1.218l.995 2.384a1.992 1.992 0 01-.938 2.536l-2.247 1.123c-.27.133-.574.209-.872.209h-.005z" fill="#110A1D"/><path d="M38.715 62.156a2.86 2.86 0 01-2.707-1.887l-4.592-12.64a4.883 4.883 0 01-2.062.473c-.223 0-.441-.01-.654-.037a4.85 4.85 0 01-4.223-4.773 4.855 4.855 0 014.815-4.882 4.848 4.848 0 014.877 4.815 4.79 4.79 0 01-.322 1.763 5.297 5.297 0 01-.436.868l8.735 4.228L48.83 40.4a4.893 4.893 0 01-2.052-1.654 4.822 4.822 0 01-.896-2.773 4.855 4.855 0 014.816-4.881c.118 0 .241 0 .36.009a4.858 4.858 0 014.503 4.474 4.833 4.833 0 01-.863 3.143 4.89 4.89 0 01-1.237 1.223 4.394 4.394 0 01-.801.44l6.802 9.584 8.593-4.299a5.017 5.017 0 01-.384-.967 4.717 4.717 0 01-.176-1.265 4.844 4.844 0 119.688-.062 4.853 4.853 0 01-4.507 4.868l-.303.01c-.493 0-.977-.067-1.446-.21a4.707 4.707 0 01-.872-.364L65.74 60.07a2.86 2.86 0 01-2.683 1.92l-24.343.16v.006z" fill="#110A1D"/></svg>