<svg width="101" height="170" fill="none" xmlns="http://www.w3.org/2000/svg"><path d="M15.488 155.26c-19.49-19.49-19.49-51.199 0-70.688 19.49-19.49 51.199-19.49 70.688 0 19.49 19.489 19.49 51.198 0 70.688-19.49 19.49-51.198 19.49-70.688 0zm68.333-68.333c-18.191-18.19-47.786-18.19-65.972 0-18.192 18.191-18.192 47.786 0 65.972 18.19 18.191 47.785 18.191 65.972 0 18.191-18.191 18.191-47.785 0-65.972z" fill="#fff"/><path d="M84.364 109.313a1.637 1.637 0 01-.398-.645c-1.73-5.118-4.555-9.654-8.394-13.494a34.663 34.663 0 00-13.494-8.394 1.667 1.667 0 01-1.133-1.578V73.054a1.664 1.664 0 012.066-1.616A49.872 49.872 0 0186.17 84.572a49.928 49.928 0 0113.129 23.158c.123.498.01 1.024-.304 1.431-.317.408-.8.64-1.313.64H85.534c-.455 0-.872-.185-1.18-.493l.01.005zm-6.437-16.494a37.982 37.982 0 018.792 13.65h8.788a46.609 46.609 0 00-11.688-19.542 46.563 46.563 0 00-19.537-11.683v8.787a37.853 37.853 0 0113.65 8.792l-.005-.004zm-62.44 62.441a49.916 49.916 0 01-13.134-23.159 1.672 1.672 0 01.303-1.426c.318-.408.801-.64 1.313-.64h12.148c.716 0 1.35.455 1.578 1.133 1.73 5.119 4.555 9.655 8.394 13.494a34.672 34.672 0 0013.495 8.394 1.662 1.662 0 011.132 1.578v12.148c0 .512-.237.995-.64 1.313a1.673 1.673 0 01-1.431.303 49.927 49.927 0 01-23.158-13.129v-.009zm-9.333-21.898a46.61 46.61 0 0011.688 19.542 46.6 46.6 0 0019.542 11.688v-8.787a37.912 37.912 0 01-13.65-8.788 37.982 37.982 0 01-8.792-13.65H6.154v-.005zm55.279 34.591a1.665 1.665 0 01-.488-1.18v-12.148c0-.716.455-1.351 1.133-1.579 5.118-1.73 9.654-4.554 13.494-8.394a34.64 34.64 0 008.394-13.494 1.663 1.663 0 011.578-1.132h12.148a1.661 1.661 0 011.616 2.066 49.973 49.973 0 01-13.134 23.158 49.87 49.87 0 01-23.158 13.134 1.673 1.673 0 01-1.427-.303c-.052-.048-.104-.09-.151-.138l-.005.01zm2.844-12.153v8.788A46.62 46.62 0 0083.819 152.9a46.66 46.66 0 0011.688-19.542h-8.788c-1.92 5.147-4.872 9.73-8.792 13.65-3.915 3.915-8.503 6.873-13.65 8.792zM2.79 109.313a1.666 1.666 0 01-.436-1.583 49.872 49.872 0 0113.133-23.158 49.936 49.936 0 0123.159-13.134 1.673 1.673 0 011.426.303c.403.318.64.801.64 1.313v12.148c0 .716-.455 1.35-1.133 1.578-5.118 1.73-9.654 4.555-13.494 8.394a34.662 34.662 0 00-8.394 13.494 1.663 1.663 0 01-1.578 1.133H3.965c-.445 0-.872-.175-1.18-.483l.005-.005zm34.59-34.07a46.609 46.609 0 00-19.542 11.69 46.656 46.656 0 00-11.688 19.54h8.788c1.92-5.147 4.872-9.73 8.792-13.65a37.981 37.981 0 0113.65-8.793v-8.787z" fill="#fff"/><path d="M77.931 92.819c-14.94-14.94-39.254-14.945-54.194 0-14.944 14.944-14.94 39.254 0 54.194 14.94 14.939 39.25 14.944 54.194 0 14.945-14.945 14.94-39.255 0-54.194z" fill="#fff"/><path d="M64.65 133.593l-27.527.183a2.1 2.1 0 00-2.086 2.113l.006.982a2.1 2.1 0 002.114 2.085l27.528-.182a2.1 2.1 0 002.085-2.114l-.006-.981a2.1 2.1 0 00-2.114-2.086zm-23.777-16.616c-.298 0-.602-.066-.877-.199l-2.147-1.038a1.984 1.984 0 01-.971-2.521l.986-2.455a1.976 1.976 0 012.815-.982l2.56 1.46a1.985 1.985 0 01.65 2.844l-1.404 2.033a1.969 1.969 0 01-1.617.854l.005.004zm19.819-.132a1.984 1.984 0 01-1.626-.835l-1.389-1.957c-.322-.45-.435-1.019-.322-1.559a1.974 1.974 0 01.934-1.294l2.64-1.55a2 2 0 01.986-.275 1.983 1.983 0 011.844 1.218l.995 2.384a1.992 1.992 0 01-.939 2.536l-2.246 1.123c-.27.133-.574.209-.872.209h-.005z" fill="#110A1D"/><path d="M38.71 131.936a2.86 2.86 0 01-2.706-1.887l-4.592-12.641a4.79 4.79 0 01-.925.332 5.026 5.026 0 01-1.792.105 4.851 4.851 0 01-4.223-4.773 4.854 4.854 0 014.816-4.882 4.847 4.847 0 014.877 4.815c0 .616-.104 1.209-.322 1.763a5.29 5.29 0 01-.436.868l8.735 4.228 6.683-9.684a4.888 4.888 0 01-2.052-1.654 4.819 4.819 0 01-.896-2.773 4.854 4.854 0 015.176-4.872 4.858 4.858 0 014.503 4.474 4.833 4.833 0 01-.863 3.143 4.9 4.9 0 01-1.237 1.223 4.387 4.387 0 01-.801.44l6.801 9.584 8.593-4.299a4.996 4.996 0 01-.383-.967 4.708 4.708 0 01-.176-1.265 4.844 4.844 0 014.81-4.877 4.847 4.847 0 01.37 9.683l-.303.009c-.493 0-.976-.066-1.445-.208a4.698 4.698 0 01-.872-.365l-4.313 12.394a2.862 2.862 0 01-2.683 1.92l-24.343.161v.005z" fill="#110A1D"/><path d="M100.411-.96v119.595a1.779 1.779 0 11-3.56 0V-.96a1.779 1.779 0 113.56 0zM4.868-1.22v119.595a1.779 1.779 0 11-3.56 0V-1.22a1.78 1.78 0 113.56 0z" fill="#fff"/></svg>