<svg width="100" height="100" fill="none" xmlns="http://www.w3.org/2000/svg"><path d="M50.127 99.39C22.804 99.39.582 77.155.582 49.843.582 22.532 22.815.3 50.127.3s49.545 22.233 49.545 49.545S77.44 99.39 50.127 99.39zm0-95.791c-25.501 0-46.245 20.744-46.245 46.245 0 25.501 20.744 46.246 46.245 46.246 25.501 0 46.246-20.745 46.246-46.246S75.628 3.6 50.127 3.6z" fill="#fff"/><path d="M66.198 18.9c-.25 0-.5-.053-.729-.167a34.317 34.317 0 00-15.342-3.58 34.317 34.317 0 00-15.343 3.58 1.647 1.647 0 01-1.894-.312l-8.514-8.515a1.642 1.642 0 01-.469-1.374c.063-.51.354-.957.791-1.217A49.456 49.456 0 0150.139.289a49.557 49.557 0 0125.438 7.026c.437.26.728.707.79 1.217.063.51-.114 1.01-.468 1.374l-8.514 8.515a1.68 1.68 0 01-1.176.479h-.01zm-16.071-7.047a37.642 37.642 0 0115.727 3.403l6.162-6.161a46.152 46.152 0 00-21.89-5.507 46.153 46.153 0 00-21.889 5.507l6.162 6.161a37.642 37.642 0 0115.728-3.403zm-.002 87.537a49.557 49.557 0 01-25.439-7.026 1.646 1.646 0 01-.79-1.218c-.063-.51.114-1.01.468-1.374l8.514-8.515c.5-.5 1.27-.624 1.894-.312a34.317 34.317 0 0015.343 3.58 34.317 34.317 0 0015.342-3.58 1.647 1.647 0 011.894.312l8.514 8.515c.365.364.531.864.469 1.374a1.65 1.65 0 01-.791 1.218 49.456 49.456 0 01-25.439 7.025h.02zm-21.89-8.806a46.152 46.152 0 0021.89 5.506c7.66 0 15.186-1.895 21.89-5.506l-6.163-6.162a37.642 37.642 0 01-15.727 3.403 37.642 37.642 0 01-15.727-3.403l-6.162 6.162zm62.998-14.51c-.437 0-.854-.166-1.166-.479l-8.514-8.514a1.65 1.65 0 01-.312-1.894 34.318 34.318 0 003.58-15.343 34.317 34.317 0 00-3.58-15.342 1.644 1.644 0 01.312-1.894l8.514-8.515c.364-.364.864-.53 1.374-.468.51.062.958.354 1.218.791a49.456 49.456 0 017.026 25.439 49.457 49.457 0 01-7.026 25.438c-.26.438-.708.729-1.218.791h-.208v-.01zm-6.526-10.513l6.162 6.162a46.152 46.152 0 005.506-21.89c0-7.66-1.895-15.185-5.507-21.888l-6.161 6.161a37.64 37.64 0 013.403 15.728 37.64 37.64 0 01-3.403 15.727zM9.023 76.074c-.072 0-.135 0-.197-.01a1.645 1.645 0 01-1.218-.791 49.456 49.456 0 01-7.026-25.44 49.456 49.456 0 017.026-25.438c.26-.437.708-.728 1.218-.79.51-.063 1.01.114 1.374.468l8.514 8.514c.5.5.624 1.27.312 1.894a34.317 34.317 0 00-3.58 15.343 34.316 34.316 0 003.58 15.342 1.645 1.645 0 01-.312 1.894L10.2 75.574c-.313.313-.729.49-1.166.49l-.01.01zm.365-48.13a46.152 46.152 0 00-5.506 21.89c0 7.66 1.894 15.186 5.506 21.89l6.162-6.163a37.64 37.64 0 01-3.404-15.727 37.64 37.64 0 013.404-15.728l-6.162-6.162z" fill="#fff"/><path d="M50.128 11.853c-20.942 0-37.991 17.039-37.991 37.991 0 20.953 17.039 37.992 37.991 37.992 20.953 0 37.992-17.04 37.992-37.992 0-20.952-17.04-37.991-37.992-37.991zm21.38 25.511a24.473 24.473 0 013.247 10.014.369.369 0 01-.177.353 31.823 31.823 0 00-7.255 6.09.341.341 0 01-.385.104l-4.694-1.53a.36.36 0 01-.25-.302 32.675 32.675 0 00-3.59-11.054.368.368 0 01.03-.386l2.904-3.996a.395.395 0 01.302-.157h.084c3.101.687 6.286.916 9.45.656a.377.377 0 01.354.188l-.02.02zM59.434 52.748a.378.378 0 01-.084.281 24.853 24.853 0 01-9.076 6.579.332.332 0 01-.281 0 25.093 25.093 0 01-9.076-6.579.378.378 0 01-.084-.28 30.145 30.145 0 013.477-10.7.347.347 0 01.24-.178 27.175 27.175 0 015.589-.583c1.884 0 3.757.198 5.59.583a.353.353 0 01.239.177 30.354 30.354 0 013.476 10.7h-.01zm-.563-25.834s.125-.104.25-.104c.042 0 .094 0 .146.031 3.83 1.52 7.255 4.018 9.92 7.213a.345.345 0 01.052.386.357.357 0 01-.334.218 28.664 28.664 0 01-6.994-.78.37.37 0 01-.23-.167 29.498 29.498 0 01-2.903-6.422.345.345 0 01.104-.375h-.01zm-14-1.249a25.256 25.256 0 0110.524 0c.135.031.25.135.281.27a31.9 31.9 0 003.55 8.786.382.382 0 01-.021.406l-2.884 3.976a.361.361 0 01-.364.145 29.65 29.65 0 00-11.647 0 .36.36 0 01-.364-.145l-2.884-3.977a.381.381 0 01-.02-.405 31.903 31.903 0 003.549-8.785.373.373 0 01.28-.27zm-13.79 8.39c2.664-3.206 6.088-5.704 9.919-7.214a.35.35 0 01.396.073c.051.052.166.177.103.375a29.272 29.272 0 01-2.904 6.422.37.37 0 01-.228.166c-2.28.542-4.632.812-6.995.781a.357.357 0 01-.333-.218.345.345 0 01.052-.386h-.01zm-2.322 3.31a.367.367 0 01.323-.188h.031c3.175.25 6.36.031 9.451-.656a.352.352 0 01.375.146l2.904 3.997a.37.37 0 01.031.385 32.676 32.676 0 00-3.59 11.054.388.388 0 01-.25.302l-4.695 1.53a.379.379 0 01-.385-.104 31.824 31.824 0 00-7.255-6.09.389.389 0 01-.177-.353 24.422 24.422 0 013.248-10.013l-.01-.01zm1.135 25.646a.366.366 0 01-.312.25c-.073 0-.24 0-.354-.167a24.695 24.695 0 01-3.79-11.668.356.356 0 01.188-.343c.063-.031.23-.104.396.02a28.906 28.906 0 015.204 4.747.354.354 0 01.083.27 28.558 28.558 0 01-1.426 6.902l.01-.01zm10.284 9.503c-3.248-1.426-6.11-3.518-8.504-6.203a.376.376 0 01-.073-.385 31.85 31.85 0 002.29-9.191.358.358 0 01.25-.312l4.642-1.51s.073-.02.114-.02a.35.35 0 01.27.124 27.695 27.695 0 009.431 6.86.363.363 0 01.219.333v4.881a.352.352 0 01-.219.334 31.834 31.834 0 00-8.046 5.027.349.349 0 01-.385.052l.01.01zm16.372 1.03a.347.347 0 01-.27.292 25.032 25.032 0 01-12.282 0 .364.364 0 01-.271-.291.367.367 0 01.146-.375 29.03 29.03 0 016.13-3.487.331.331 0 01.281 0 29.557 29.557 0 016.131 3.487.382.382 0 01.146.375h-.01zm12.064-7.223a24.546 24.546 0 01-8.504 6.193.366.366 0 01-.385-.052 31.656 31.656 0 00-8.046-5.027.363.363 0 01-.218-.333V62.22c0-.145.083-.28.218-.333a27.592 27.592 0 009.43-6.86.35.35 0 01.271-.124c.042 0 .073 0 .114.02l4.643 1.51c.135.042.24.166.25.312a31.937 31.937 0 002.29 9.191.355.355 0 01-.073.385h.01zm2.436-3.216a.357.357 0 01-.354.167.359.359 0 01-.313-.25 29.597 29.597 0 01-1.426-6.901c0-.094.021-.198.084-.27a29.299 29.299 0 015.204-4.747.36.36 0 01.208-.073c.084 0 .146.031.188.052a.34.34 0 01.187.343 24.695 24.695 0 01-3.789 11.668l.01.01z" fill="#fff"/></svg>